<svg width="16" height="16" viewBox="0 0 16 16" fill="none" xmlns="http://www.w3.org/2000/svg">
<path d="M7.33108 7.20667C7.33108 7.32467 7.37788 7.43787 7.46118 7.52117C7.54448 7.60447 7.65768 7.65127 7.77528 7.65127C7.89288 7.65127 8.00608 7.60447 8.08938 7.52117C8.17268 7.43787 8.21948 7.32467 8.21948 7.20667V6.31787C8.21948 6.19987 8.17268 6.08667 8.08938 6.00337C8.00608 5.92007 7.89288 5.87327 7.77528 5.87327C7.65768 5.87327 7.54448 5.92007 7.46118 6.00337C7.37788 6.08667 7.33108 6.19987 7.33108 6.31787V7.20667ZM7.33108 7.20667C7.33108 8.38587 7.79908 9.51667 8.63218 10.3498C9.46528 11.1829 10.5961 11.6509 11.7753 11.6509M11.7753 11.6509H12.6637C12.7817 11.6509 12.8949 11.6041 12.9782 11.5208C13.0615 11.4375 13.1083 11.3243 13.1083 11.2063C13.1083 11.0883 13.0615 10.9751 12.9782 10.8918C12.8949 10.8085 12.7817 10.7617 12.6637 10.7617H11.7753C11.6573 10.7617 11.5441 10.8085 11.4608 10.8918C11.3775 10.9751 11.3307 11.0883 11.3307 11.2063C11.3307 11.3243 11.3775 11.4375 11.4608 11.5208C11.5441 11.6041 11.6573 11.6509 11.7753 11.6509ZM2 16.9847L3.466 13.6067C2.34438 12.0137 1.84238 10.0667 2.05418 8.12967C2.26598 6.19267 3.17708 4.39967 4.61638 3.08767C6.05568 1.77567 7.92438 1.03267 9.87158 1.00067C11.8188 0.968667 13.7108 1.64967 15.1928 2.91267C16.6748 4.17567 17.6441 5.93967 17.9196 7.86767C18.1951 9.79567 17.7575 11.7597 16.6889 13.3887C15.6204 15.0177 13.9944 16.2007 12.116 16.7157C10.2377 17.2307 8.23608 17.0417 6.487 16.1847L2 16.9847Z" stroke="black" stroke-width="1.2" stroke-linecap="round" stroke-linejoin="round"/>
</svg>
